<svg height="512pt" viewBox="0 0 512 512" width="512pt" xmlns="http://www.w3.org/2000/svg"><path d="m497.769531 395.148438h-483.539062c-7.859375 0-14.230469-6.371094-14.230469-14.234376v-366.683593c0-7.859375 6.371094-14.230469 14.230469-14.230469h483.535156c7.863281 0 14.234375 6.371094 14.234375 14.230469v366.683593c0 7.863282-6.371094 14.234376-14.230469 14.234376zm0 0" fill="#6770e6"/><path d="m497.769531 0h-483.539062c-7.859375 0-14.230469 6.371094-14.230469 14.230469v14c0-7.859375 6.371094-14.230469 14.230469-14.230469h483.539062c7.859375 0 14.230469 6.371094 14.230469 14.230469v-14c0-7.859375-6.371094-14.230469-14.230469-14.230469zm0 0" fill="#8f95e6"/><path d="m30 350.914062v-306.683593c0-7.859375 6.371094-14.230469 14.230469-14.230469h423.535156c7.859375 0 14.230469 6.371094 14.230469 14.230469v306.683593c0 7.863282-6.371094 14.234376-14.230469 14.234376h-423.535156c-7.859375 0-14.230469-6.371094-14.230469-14.234376zm0 0" fill="#69ebfc"/><path d="m196.277344 395.148438h121.894531v76.871093h-121.894531zm0 0" fill="#5861c7"/><path d="m375.808594 512h-236.601563c-11.039062 0-19.988281-8.949219-19.988281-19.988281 0-11.042969 8.949219-19.992188 19.988281-19.992188h236.601563c11.042968 0 19.992187 8.949219 19.992187 19.992188 0 11.039062-8.949219 19.988281-19.992187 19.988281zm0 0" fill="#6770e6"/><path d="m375.808594 498h-236.601563c-8.574219 0-15.863281-5.40625-18.703125-12.988281-.820312 2.179687-1.289062 4.53125-1.289062 7 0 11.039062 8.949218 19.988281 19.992187 19.988281h236.601563c11.039062 0 19.988281-8.949219 19.988281-19.988281 0-2.46875-.46875-4.820313-1.285156-7-2.835938 7.582031-10.128907 12.988281-18.703125 12.988281zm0 0" fill="#5861c7"/><path d="m44.230469 365.148438h255.910156l-153.273437-265.484376-116.867188 202.417969v48.832031c0 7.863282 6.371094 14.234376 14.230469 14.234376zm0 0" fill="#5ed4e3"/><g fill="#c7fcfe"><path d="m337.027344 197.257812-96.929688 167.890626h193.863282zm0 0"/><path d="m400.59375 108.152344c0 23.542968-19.085938 42.628906-42.625 42.628906-23.542969 0-42.625-19.085938-42.625-42.628906 0-23.539063 19.082031-42.625 42.625-42.625 23.539062 0 42.625 19.085937 42.625 42.625zm0 0"/></g></svg>